#!OML:ASF H:\charlestonDancing\Project 1\Capture day 1\Session 1\femaleDancer.ASF
:FULLY-SPECIFIED
:DEGREES
205
root -29.5206 17.6818 -0.427639 369.565 -100.52 -371.574
lowerback 7.85324 -1.09879 -0.850391
upperback 1.84944 -1.63394 -1.48176
thorax -2.50933 -0.837125 -0.888047
lowerneck 4.55293 -2.06213 -0.105968
upperneck -4.82875 -2.67555 1.77721
head -2.27375 -1.38673 0.670497
rclavicle -2.08475e-014 3.77691e-015
rhumerus -47.9599 -44.0543 -46.7704
rradius 10.0213
rwrist 85.9553
rhand -15.4674 -37.3434
rfingers 7.12502
rthumb 10.714 -67.0503
lclavicle -2.08475e-014 3.77691e-015
lhumerus -35.6187 9.45817 77.125
lradius 43.4022
lwrist -11.4767
lhand -28.979 13.5367
lfingers 7.12502
lthumb -2.33141 43.5037
rfemur -28.1888 4.10821 18.4548
rtibia 59.6258
rfoot -9.46587 -3.69149
rtoes -15.7116
lfemur -5.05827 3.13506 -29.4675
ltibia 32.847
lfoot -14.8875 -6.13287
ltoes -9.68239
206
root -29.8457 17.6821 -0.464113 371.867 -99.3747 -373.855
lowerback 8.12542 -1.64325 -1.34236
upperback 1.81908 -2.39667 -1.28423
thorax -2.67077 -1.21189 -0.324372
lowerneck 4.78697 -2.30178 -0.621408
upperneck -5.23484 -3.01197 2.06437
head -2.43678 -1.55601 0.871246
rclavicle -6.1499e-015 2.18663e-015
rhumerus -72.5753 -55.5129 -13.5384
rradius 9.65943
rwrist 108.463
rhand -15.7731 -38.0047
rfingers 7.12502
rthumb 10.419 -67.7266
lclavicle -6.1499e-015 2.18663e-015
lhumerus -33.5695 8.5118 77.6155
lradius 45.8921
lwrist -10.7732
lhand -28.9362 13.0212
lfingers 7.12502
lthumb -2.29007 42.9886
rfemur -28.9228 3.45094 18.2923
rtibia 54.6569
rfoot -10.2512 -5.66462
rtoes -14.2329
lfemur -3.24986 3.03953 -29.5699
ltibia 31.5846
lfoot -14.5764 -6.91575
ltoes -8.30432
207
root -30.1659 17.7021 -0.505133 375.155 -98.0857 -376.996
lowerback 8.34705 -2.23508 -1.90701
upperback 1.75635 -3.22793 -1.05534
thorax -2.81159 -1.61808 0.322256
lowerneck 4.95903 -2.59376 -1.15303
upperneck -5.56364 -3.42068 2.38006
head -2.55908 -1.76069 1.08711
rclavicle -4.00054e-015 5.06901e-015
rhumerus -106.61 -55.0518 29.3017
rradius 10.5536
rwrist 131.087
rhand -14.3648 -39.1624
rfingers 7.12502
rthumb 11.7773 -68.8112
lclavicle -4.00054e-015 5.06901e-015
lhumerus -31.7119 7.55298 77.9678
lradius 48.6876
lwrist -9.88031
lhand -28.9708 12.8464
lfingers 7.12502
lthumb -2.32352 42.8135
rfemur -29.5684 2.89149 18.0605
rtibia 48.9934
rfoot -10.9647 -7.28476
rtoes -11.083
lfemur -1.46329 2.78453 -29.5818
ltibia 30.0129
lfoot -13.9528 -7.54512
ltoes -8.02426
208
root -30.4966 17.7283 -0.55207 378.386 -96.7719 -380.222
lowerback 8.5856 -2.69892 -2.23615
upperback 1.81208 -3.87517 -0.918366
thorax -2.8433 -1.93731 0.723973
lowerneck 5.00109 -3.07743 -1.29873
upperneck -5.86926 -4.06461 2.5989
head -2.64961 -2.08714 1.21221
rclavicle 5.93869e-015 5.86415e-015
rhumerus -119.157 -49.8115 47.2355
rradius 11.716
rwrist 141.06
rhand -14.4979 -39.6448
rfingers 7.12502
rthumb 11.649 -69.301
lclavicle 5.93869e-015 5.86415e-015
lhumerus -29.7424 6.24066 78.1755
lradius 51.3639
lwrist -8.96352
lhand -28.974 13.0976
lfingers 7.12502
lthumb -2.32657 43.0646
rfemur -29.6491 2.36376 18.0153
rtibia 42.824
rfoot -11.9894 -8.38166
rtoes -8.64407
lfemur 0.473903 2.48307 -29.3454
ltibia 28.5521
lfoot -13.284 -8.2592
ltoes -7.66631
209
root -30.8565 17.7325 -0.586711 382.317 -95.3634 -384.187
lowerback 8.50553 -3.22467 -2.11309
upperback 1.95493 -4.5565 -0.845152
thorax -2.63638 -2.28126 0.790806
lowerneck 5.13775 -3.6164 -1.53234
upperneck -6.24127 -4.78106 2.9513
head -2.77144 -2.45305 1.40396
rclavicle -2.7892e-014 -1.10325e-014
rhumerus -119.989 -47.373 50.7327
rradius 12.3304
rwrist 141.689
rhand -12.8766 -41.9768
rfingers 7.12502
rthumb 13.2122 -71.5381
lclavicle -2.7892e-014 -1.10325e-014
lhumerus -27.9119 4.86057 78.2555
lradius 53.6646
lwrist -8.59728
lhand -29.2007 12.8095
lfingers 7.12502
lthumb -2.54553 42.774
rfemur -29.2493 1.30809 18.0903
rtibia 36.6937
rfoot -12.6131 -8.3453
rtoes -10.5126
lfemur 2.74838 2.38059 -28.9231
ltibia 26.7955
lfoot -12.2324 -9.43808
ltoes -5.94023
210
root -31.1781 17.7289 -0.640926 383.077 -94.531 -384.639
lowerback 8.60335 -3.56681 -2.19657
upperback 1.88262 -5.01085 -0.601932
thorax -2.72405 -2.50286 1.14215
lowerneck 5.31462 -4.13892 -2.04449
upperneck -6.63092 -5.48567 3.4889
head -2.89155 -2.81336 1.70848
rclavicle -3.23771e-014 -4.77083e-015
rhumerus -119.156 -45.6947 52.219
rradius 12.7513
rwrist 140.922
rhand -13.343 -42.196
rfingers 7.12502
rthumb 12.7625 -71.786
lclavicle -3.23771e-014 -4.77083e-015
lhumerus -26.1681 3.70834 78.1606
lradius 55.6635
lwrist -8.1881
lhand -29.564 12.3521
lfingers 7.12502
lthumb -2.89637 42.3122
rfemur -29.5101 1.86178 18.2184
rtibia 31.0442
rfoot -11.4832 -8.27613
rtoes -14.9933
lfemur 4.45222 2.53725 -28.2158
ltibia 24.93
lfoot -10.8987 -10.2446
ltoes -4.94979
211
root -31.5431 17.7153 -0.684095 406.01 -93.8072 -407.61
lowerback 8.50064 -4.11772 -3.23854
upperback 1.97047 -5.83788 -0.765725
thorax -2.46212 -2.91562 1.61566
lowerneck 5.27599 -4.7058 -2.51631
upperneck -6.83968 -6.25245 3.93482
head -2.90361 -3.20051 1.96738
rclavicle 2.04003e-014 -1.19271e-015
rhumerus -114.341 -45.7546 48.0132
rradius 12.7258
rwrist 135.693
rhand -12.3756 -43.1402
rfingers 7.12502
rthumb 13.695 -72.6696
lclavicle 2.04003e-014 -1.19271e-015
lhumerus -24.4789 2.68357 77.9606
lradius 57.305
lwrist -7.97374
lhand -30.1311 11.9598
lfingers 7.12502
lthumb -3.44405 41.9117
rfemur -29.19 0.970285 16.9695
rtibia 26.3724
rfoot -11.7936 -7.24621
rtoes -19.3337
lfemur 6.74812 2.29741 -28.837
ltibia 23.0675
lfoot -9.564 -11.3613
ltoes -3.70397
212
root -31.9181 17.6948 -0.731103 422.225 -93.5674 -423.936
lowerback 8.47155 -4.51519 -3.76544
upperback 2.01414 -6.41108 -0.781651
thorax -2.31696 -3.20287 1.93442
lowerneck 5.35004 -5.29605 -3.02754
upperneck -6.99376 -7.06073 4.29743
head -2.91051 -3.60388 2.20946
rclavicle -5.59082e-016 6.06293e-015
rhumerus -110.7 -45.1664 45.3923
rradius 12.715
rwrist 131.794
rhand -12.2894 -42.7012
rfingers 7.12502
rthumb 13.7781 -72.2249
lclavicle -5.59082e-016 6.06293e-015
lhumerus -23.1021 1.74659 77.7617
lradius 58.7392
lwrist -7.83858
lhand -30.5416 11.9029
lfingers 7.12502
lthumb -3.84052 41.8481
rfemur -29.0457 0.277591 16.5492
rtibia 23.4102
rfoot -12.4269 -5.79172
rtoes -18.8407
lfemur 9.22706 2.05169 -28.9253
ltibia 21.0323
lfoot -8.41475 -11.8492
ltoes -3.99887
213
root -32.2904 17.6735 -0.784201 433.223 -93.1201 -434.892
lowerback 8.37055 -4.85968 -3.69558
upperback 1.97866 -6.85136 -0.629122
thorax -2.2618 -3.42195 2.08265
lowerneck 5.6037 -5.92963 -3.54062
upperneck -7.24486 -7.93835 4.55458
head -2.97745 -4.03817 2.43109
rclavicle 9.36152e-015 2.98177e-015
rhumerus -106.368 -44.6853 41.4949
rradius 12.5803
rwrist 126.717
rhand -11.3992 -41.827
rfingers 7.12502
rthumb 14.6359 -71.2905
lclavicle 9.36152e-015 2.98177e-015
lhumerus -21.9359 0.836291 77.5928
lradius 59.9463
lwrist -7.80262
lhand -30.7832 11.9252
lfingers 7.12502
lthumb -4.07374 41.866
rfemur -29.3707 -0.109929 16.8973
rtibia 22.1067
rfoot -12.6299 -4.32282
rtoes -19.2387
lfemur 11.3296 1.62718 -28.4301
ltibia 19.349
lfoot -7.48957 -11.8154
ltoes -6.57604
214
root -32.713 17.6191 -0.815761 454.192 -94.0156 -456.226
lowerback 8.06289 -5.28435 -4.36678
upperback 2.14507 -7.46599 -0.921919
thorax -1.83681 -3.74181 2.15431
lowerneck 5.81782 -6.62334 -4.08057
upperneck -7.46279 -8.90396 4.77241
head -3.01433 -4.51326 2.64406
rclavicle 5.0951e-014 6.80837e-015
rhumerus -104.019 -43.7242 40.0723
rradius 12.5012
rwrist 123.085
rhand -11.7788 -39.7314
rfingers 7.12502
rthumb 14.2702 -69.2211
lclavicle 5.0951e-014 6.80837e-015
lhumerus -20.8868 -0.0927699 77.5158
lradius 60.8989
lwrist -7.92911
lhand -31.0822 11.8788
lfingers 7.12502
lthumb -4.36247 41.8139
rfemur -28.9275 -2.88108 16.5326
rtibia 22.0437
rfoot -13.4761 -1.66221
rtoes -19.3964
lfemur 13.6544 0.828356 -29.359
ltibia 18.6214
lfoot -6.81613 -12.0877
ltoes -7.6163
215
root -33.1009 17.5412 -0.872472 459.678 -93.6151 -461.673
lowerback 7.93775 -5.45335 -3.90555
upperback 2.05592 -7.6384 -0.698695
thorax -1.87822 -3.82426 2.13792
lowerneck 5.95752 -7.30235 -4.74417
upperneck -7.5367 -9.8582 5.03444
head -2.97235 -4.98069 2.88052
rclavicle -1.04906e-015 2.26118e-015
rhumerus -101.287 -42.9313 37.8178
rradius 12.4354
rwrist 119.134
rhand -10.6814 -38.875
rfingers 7.12502
rthumb 15.3274 -68.2869
lclavicle -1.04906e-015 2.26118e-015
lhumerus -20.2181 -0.936935 77.5476
lradius 61.722
lwrist -8.12334
lhand -31.4005 11.4135
lfingers 7.12502
lthumb -4.66986 41.342
rfemur -28.8115 -2.90736 17.4219
rtibia 22.9427
rfoot -13.5331 -1.44148
rtoes -20.0081
lfemur 14.8594 0.00363455 -28.8319
ltibia 18.9563
lfoot -6.46855 -11.977
ltoes -7.90326
216
root -33.5095 17.4603 -0.927855 462.049 -93.0471 -464.191
lowerback 7.8822 -5.58507 -3.32547
upperback 1.97116 -7.7549 -0.415622
thorax -1.96533 -3.879 2.12161
lowerneck 5.98935 -7.90412 -5.29821
upperneck -7.42114 -10.7183 4.98932
head -2.8637 -5.39208 2.97529
rclavicle 5.74798e-014 -1.39149e-015
rhumerus -99.279 -42.1604 36.5403
rradius 12.4173
rwrist 115.966
rhand -9.18171 -38.4607
rfingers 7.12502
rthumb 16.7715 -67.7564
lclavicle 5.74798e-014 -1.39149e-015
lhumerus -20.0981 -1.5726 77.6436
lradius 62.5997
lwrist -8.30866
lhand -31.5543 10.9945
lfingers 7.12502
lthumb -4.81839 40.9198
rfemur -28.3762 -2.61157 18.4678
rtibia 24.8302
rfoot -13.9012 -1.88383
rtoes -18.5503
lfemur 16.1908 -0.775974 -28.2554
ltibia 19.5539
lfoot -6.0322 -11.5661
ltoes -8.66967
217
root -33.9315 17.3764 -0.976616 461.41 -92.5645 -463.667
lowerback 7.69832 -5.66956 -2.74413
upperback 1.8192 -7.80644 -0.177019
thorax -2.06199 -3.90069 2.04468
lowerneck 6.15573 -8.4325 -5.75906
upperneck -7.36095 -11.4931 4.73012
head -2.81795 -5.7557 2.99046
rclavicle -6.89348e-014 1.78906e-015
rhumerus -98.6687 -41.3301 37.1805
rradius 12.428
rwrist 114.381
rhand -9.08514 -37.0161
rfingers 7.12502
rthumb 16.8645 -66.3038
lclavicle -6.89348e-014 1.78906e-015
lhumerus -20.5022 -2.13065 77.863
lradius 63.5921
lwrist -8.44677
lhand -31.3666 11.3014
lfingers 7.12502
lthumb -4.63709 41.2307
rfemur -27.6616 -2.45093 19.4458
rtibia 26.7929
rfoot -13.1586 -2.27688
rtoes -24.7384
lfemur 17.1954 -1.44074 -27.8811
ltibia 20.8202
lfoot -5.44557 -11.0302
ltoes -9.61031
218
root -34.3645 17.3391 -1.01664 458.734 -92.3924 -461.037
lowerback 7.3964 -5.7532 -2.33697
upperback 1.60119 -7.872 -0.0442933
thorax -2.15313 -3.92862 1.9462
lowerneck 6.60166 -8.8884 -6.23133
upperneck -7.5691 -12.1882 4.51191
head -2.91666 -6.07906 3.052
rclavicle -7.67309e-014 1.05356e-014
rhumerus -99.0096 -40.6271 38.8593
rradius 12.5223
rwrist 114.675
rhand -8.42696 -38.0902
rfingers 7.12502
rthumb 17.498 -67.3227
lclavicle -7.67309e-014 1.05356e-014
lhumerus -21.4027 -2.48491 78.2664
lradius 64.5632
lwrist -8.6503
lhand -30.8461 11.3715
lfingers 7.12502
lthumb -4.13448 41.3111
rfemur -27.671 -2.72748 20.0581
rtibia 29.1741
rfoot -9.42916 -2.53172
rtoes -29.9127
lfemur 17.8858 -2.08584 -27.9177
ltibia 22.533
lfoot -4.48496 -10.3054
ltoes -10.9779
